<svg preserveAspectRatio="none" overflow="visible" style="display: block;" width="33.3333" height="33.3333" viewBox="0 0 33.3333 33.3333" fill="none" xmlns="http://www.w3.org/2000/svg">
<g id="Group">
<path id="Vector" opacity="0.4" d="M16.6667 33.3333C25.8713 33.3333 33.3333 25.8714 33.3333 16.6666C33.3333 7.46192 25.8713 0 16.6667 0C7.46192 0 0 7.46192 0 16.6666C0 25.8714 7.46192 33.3333 16.6667 33.3333Z" fill="#E3E3E3"/>
<path id="Vector_2" d="M20.4337 16.8359L17.917 15.9526V10.3026H18.517C19.867 10.3026 20.967 11.4859 20.967 12.9359C20.967 13.6193 21.5337 14.1859 22.217 14.1859C22.9003 14.1859 23.467 13.6193 23.467 12.9359C23.467 10.1026 21.2503 7.8026 18.517 7.8026H17.917V6.83593C17.917 6.1526 17.3503 5.58593 16.667 5.58593C15.9837 5.58593 15.417 6.1526 15.417 6.83593V7.8026H14.3337C11.8669 7.8026 9.85027 9.88593 9.85027 12.4359C9.85027 15.4193 11.5836 16.3693 12.9003 16.8359L15.417 17.7193V23.3526H14.817C13.467 23.3526 12.3669 22.1693 12.3669 20.7193C12.3669 20.0359 11.8003 19.4693 11.1169 19.4693C10.4336 19.4693 9.86693 20.0359 9.86693 20.7193C9.86693 23.5526 12.0836 25.8526 14.817 25.8526H15.417V26.8359C15.417 27.5193 15.9837 28.0859 16.667 28.0859C17.3503 28.0859 17.917 27.5193 17.917 26.8359V25.8693H19.0003C21.467 25.8693 23.4837 23.7859 23.4837 21.2359C23.467 18.2359 21.7337 17.2859 20.4337 16.8359ZM13.7337 14.4859C12.8836 14.1859 12.3669 13.9026 12.3669 12.4526C12.3669 11.2693 13.2503 10.3193 14.3503 10.3193H15.4337V15.0859L13.7337 14.4859ZM19.0003 23.3693H17.917V18.6026L19.6003 19.1859C20.4503 19.4859 20.967 19.7693 20.967 21.2193C20.967 22.4026 20.0837 23.3693 19.0003 23.3693Z" fill="#E3E3E3"/>
</g>
</svg>
