<svg preserveAspectRatio="none" width="100%" height="100%" overflow="visible" style="display: block;" viewBox="0 0 21.5 21.4983" fill="none" xmlns="http://www.w3.org/2000/svg">
<g id="Group">
<path id="Vector" fill-rule="evenodd" clip-rule="evenodd" d="M6.059 3.99832H3.725C3.28 3.99832 2.909 3.99832 2.605 4.01832C2.29426 4.03126 1.9878 4.09546 1.698 4.20832C1.36425 4.34641 1.06097 4.5489 0.805486 4.80421C0.550001 5.05953 0.347314 5.36267 0.209 5.69632C0.089 5.98632 0.042 6.28632 0.021 6.60332C2.79397e-08 6.90732 0 7.27833 0 7.72333V7.77332C0 8.21832 -1.86265e-08 8.58932 0.02 8.89332C0.042 9.21132 0.09 9.51032 0.21 9.80032C0.383 10.2203 0.656 10.5863 1 10.8703V14.3813C1 15.4733 1 16.3393 1.057 17.0363C1.115 17.7503 1.237 18.3533 1.517 18.9053C1.97284 19.799 2.69992 20.5253 3.594 20.9803C4.144 21.2613 4.748 21.3833 5.462 21.4413C6.159 21.4983 7.025 21.4983 8.117 21.4983H13.383C14.475 21.4983 15.341 21.4983 16.038 21.4413C16.752 21.3833 17.355 21.2613 17.907 20.9813C18.8005 20.5257 19.5268 19.799 19.982 18.9053C20.263 18.3533 20.385 17.7503 20.443 17.0363C20.5 16.3393 20.5 15.4733 20.5 14.3813V10.8693C20.8468 10.583 21.118 10.2159 21.29 9.80032C21.411 9.51032 21.458 9.21032 21.48 8.89332C21.5 8.58932 21.5 8.21832 21.5 7.77332V7.72333C21.5 7.27833 21.5 6.90732 21.48 6.60332C21.4671 6.29259 21.4029 5.98612 21.29 5.69632C21.1519 5.36257 20.9494 5.0593 20.6941 4.80381C20.4388 4.54833 20.1357 4.34564 19.802 4.20732C19.512 4.08732 19.212 4.04032 18.895 4.01932C18.591 3.99832 18.22 3.99832 17.775 3.99832H15.441C15.262 2.88301 14.6916 1.86794 13.8319 1.1352C12.9722 0.402465 11.8796 0 10.75 0C9.62042 0 8.52779 0.402465 7.66811 1.1352C6.80843 1.86794 6.23795 2.88301 6.059 3.99832ZM7.587 3.99832H13.913C13.7439 3.28654 13.3397 2.65259 12.7658 2.19898C12.1918 1.74537 11.4816 1.49861 10.75 1.49861C10.0184 1.49861 9.30822 1.74537 8.73424 2.19898C8.16026 2.65259 7.75606 3.28654 7.587 3.99832ZM19 11.4693L18.895 11.4773C18.591 11.4983 18.22 11.4983 17.775 11.4983H15.5V12.2483C15.5 12.4472 15.421 12.638 15.2803 12.7787C15.1397 12.9193 14.9489 12.9983 14.75 12.9983C14.5511 12.9983 14.3603 12.9193 14.2197 12.7787C14.079 12.638 14 12.4472 14 12.2483V11.4983H7.5V12.2483C7.5 12.4472 7.42098 12.638 7.28033 12.7787C7.13968 12.9193 6.94891 12.9983 6.75 12.9983C6.55109 12.9983 6.36032 12.9193 6.21967 12.7787C6.07902 12.638 6 12.4472 6 12.2483V11.4983H3.725C3.28 11.4983 2.909 11.4983 2.605 11.4783C2.56997 11.4756 2.53497 11.4726 2.5 11.4693V14.3483C2.5 15.4813 2.5 16.2853 2.552 16.9143C2.602 17.5343 2.699 17.9193 2.854 18.2243C3.16556 18.8357 3.66263 19.3328 4.274 19.6443C4.579 19.7993 4.964 19.8953 5.584 19.9463C6.214 19.9973 7.018 19.9983 8.15 19.9983H13.35C14.483 19.9983 15.287 19.9983 15.916 19.9463C16.536 19.8963 16.921 19.7993 17.226 19.6443C17.8374 19.3328 18.3344 18.8357 18.646 18.2243C18.801 17.9193 18.897 17.5343 18.948 16.9143C18.999 16.2843 19 15.4813 19 14.3483V11.4693ZM7.5 9.99832V9.24832C7.5 9.04941 7.42098 8.85865 7.28033 8.71799C7.13968 8.57734 6.94891 8.49832 6.75 8.49832C6.55109 8.49832 6.36032 8.57734 6.21967 8.71799C6.07902 8.85865 6 9.04941 6 9.24832V9.99832H3.75C3.274 9.99832 2.954 9.99832 2.707 9.98132C2.466 9.96432 2.349 9.93532 2.272 9.90332C2.1202 9.8405 1.98228 9.74838 1.86611 9.63221C1.74995 9.51605 1.65782 9.37812 1.595 9.22632C1.563 9.14932 1.534 9.03232 1.517 8.79132C1.50072 8.44391 1.49505 8.09608 1.5 7.74832C1.5 7.27232 1.5 6.95232 1.517 6.70532C1.534 6.46432 1.563 6.34732 1.595 6.27032C1.722 5.96332 1.965 5.72032 2.272 5.59332C2.349 5.56132 2.466 5.53233 2.707 5.51533C3.05441 5.49905 3.40224 5.49338 3.75 5.49832H17.75C18.226 5.49832 18.546 5.49833 18.793 5.51533C19.034 5.53233 19.151 5.56132 19.228 5.59332C19.535 5.72032 19.778 5.96332 19.905 6.27032C19.937 6.34732 19.966 6.46432 19.983 6.70532C20 6.95232 20 7.27232 20 7.74832C20 8.22432 20 8.54432 19.983 8.79132C19.966 9.03232 19.937 9.14932 19.905 9.22632C19.8422 9.37812 19.7501 9.51605 19.6339 9.63221C19.5177 9.74838 19.3798 9.8405 19.228 9.90332C19.151 9.93532 19.034 9.96432 18.793 9.98132C18.546 9.99832 18.226 9.99832 17.75 9.99832H15.5V9.24832C15.5 9.04941 15.421 8.85865 15.2803 8.71799C15.1397 8.57734 14.9489 8.49832 14.75 8.49832C14.5511 8.49832 14.3603 8.57734 14.2197 8.71799C14.079 8.85865 14 9.04941 14 9.24832V9.99832H7.5Z" fill="var(--fill-0, #CA4080)"/>
</g>
</svg>
