<svg preserveAspectRatio="none" width="100%" height="100%" overflow="visible" style="display: block;" viewBox="0 0 19.5 16" fill="none" xmlns="http://www.w3.org/2000/svg">
<g id="Group">
<path id="Vector" d="M10.25 0C9.8358 0 9.5 0.33579 9.5 0.75C9.5 1.16421 9.8358 1.5 10.25 1.5H11.6772L12.6317 5H6V2.75C6 2.33579 5.66421 2 5.25 2H5.24898H2.25C1.83579 2 1.5 2.33579 1.5 2.75C1.5 3.16421 1.83579 3.5 2.25 3.5H4.5V5.68793L4.19794 7.5003C1.87472 7.5282 0 9.4202 0 11.75C0 14.0972 1.90279 16 4.25 16C6.59721 16 8.5 14.0972 8.5 11.75C8.5 11.6879 8.4987 11.6261 8.496 11.5646L13.1522 6.90847L13.4255 7.9105C11.9913 8.5932 11 10.0558 11 11.75C11 14.0972 12.9028 16 15.25 16C17.5972 16 19.5 14.0972 19.5 11.75C19.5 9.4028 17.5972 7.5 15.25 7.5C15.1229 7.5 14.9971 7.5056 14.8728 7.5165L12.9736 0.55266C12.8846 0.22637 12.5882 0 12.25 0H10.25ZM13.8302 9.3944L14.5264 11.9473C14.6354 12.347 15.0477 12.5826 15.4473 12.4736C15.847 12.3646 16.0826 11.9523 15.9736 11.5527L15.2774 9.0001C16.7836 9.0149 18 10.2404 18 11.75C18 13.2688 16.7688 14.5 15.25 14.5C13.7312 14.5 12.5 13.2688 12.5 11.75C12.5 10.7507 13.033 9.8759 13.8302 9.3944ZM8.0648 9.8745C7.5793 8.8887 6.72288 8.1184 5.67772 7.7458L5.88535 6.5H11.4393L8.0648 9.8745ZM5.42486 9.2629C6.13556 9.5992 6.67903 10.2312 6.89648 11H5.13535L5.42486 9.2629ZM3.9452 9.0167L3.5102 11.6267C3.47396 11.8442 3.53523 12.0666 3.67773 12.2348C3.82024 12.403 4.02954 12.5 4.25 12.5H6.89648C6.57002 13.6543 5.50878 14.5 4.25 14.5C2.73122 14.5 1.5 13.2688 1.5 11.75C1.5 10.3342 2.56985 9.1684 3.9452 9.0167Z" fill="var(--fill-0, #CA4080)"/>
</g>
</svg>
