<svg preserveAspectRatio="none" width="100%" height="100%" overflow="visible" style="display: block;" viewBox="0 0 19.0131 19.0132" fill="none" xmlns="http://www.w3.org/2000/svg">
<g id="Group">
<path id="Vector" d="M15.2734 5.28679C15.5663 5.57968 15.5663 6.05455 15.2734 6.34745C14.9805 6.64034 14.5057 6.64034 14.2128 6.34745L12.643 4.77764C12.3501 4.48474 12.3501 4.00987 12.643 3.71698C12.9358 3.42408 13.4107 3.42408 13.7036 3.71698L15.2734 5.28679ZM6.90107 14.7198C7.19396 14.4269 7.19396 13.952 6.90107 13.6591L5.33126 12.0893C5.03837 11.7964 4.56349 11.7964 4.2706 12.0893C3.9777 12.3822 3.9777 12.8571 4.2706 13.15L5.84041 14.7198C6.1333 15.0127 6.60817 15.0127 6.90107 14.7198ZM18.4446 0.568582C17.6865 -0.189527 16.4574 -0.189527 15.6993 0.568582L15.0284 1.23946L14.821 1.03209C13.8787 0.0897826 12.3509 0.0897826 11.4086 1.03209C11.3168 1.12384 11.2339 1.22134 11.1599 1.32347C10.242 1.15363 9.25796 1.42311 8.54696 2.13411C7.40033 3.28078 7.40033 5.13988 8.54696 6.28654L9.26416 7.00367L7.025 9.24279L6.30782 8.52559C5.16116 7.37895 3.30206 7.37895 2.15539 8.52559C1.44438 9.23659 1.1749 10.2206 1.34476 11.1385C1.24265 11.2126 1.14515 11.2955 1.05341 11.3872C0.111102 12.3295 0.111102 13.8573 1.05341 14.7996L1.2608 15.007L0.568582 15.6992C-0.189527 16.4573 -0.189527 17.6865 0.568582 18.4446C1.32668 19.2027 2.55582 19.2027 3.31392 18.4446L4.00614 17.7524L4.21347 17.9597C5.15578 18.902 6.68357 18.902 7.62586 17.9597C7.71766 17.8679 7.80056 17.7704 7.87456 17.6683C8.79246 17.8381 9.77646 17.5687 10.4875 16.8577C11.6341 15.711 11.6341 13.8519 10.4875 12.7052L9.77036 11.9881L12.0095 9.74899L12.7266 10.4662C13.8733 11.6128 15.7324 11.6128 16.8791 10.4662C17.5901 9.75519 17.8596 8.77119 17.6897 7.85329C17.7918 7.77919 17.8893 7.69629 17.9811 7.60459C18.9234 6.66225 18.9234 5.13446 17.9811 4.19215L17.7737 3.9848L18.4446 3.31392C19.2027 2.55581 19.2027 1.32668 18.4446 0.568582ZM16.7131 2.92414L16.089 2.30012L16.7599 1.62924C16.9322 1.45692 17.2116 1.45692 17.3839 1.62924C17.5563 1.80156 17.5563 2.08094 17.3839 2.25326L16.7131 2.92414ZM10.9488 8.68839L8.70966 10.9275L8.08566 10.3035L10.3248 8.06429L10.9488 8.68839ZM2.94548 16.6917L2.25326 17.3839C2.08094 17.5562 1.80156 17.5562 1.62924 17.3839C1.45692 17.2116 1.45692 16.9322 1.62924 16.7599L2.32146 16.0677L2.94548 16.6917ZM12.4693 2.09275C12.8258 1.73623 13.4038 1.73623 13.7604 2.09275L16.9204 5.25281C17.2769 5.60934 17.2769 6.18738 16.9204 6.5439C16.8142 6.65006 16.6903 6.72358 16.5589 6.76636C16.3556 6.83257 16.1902 6.98241 16.1043 7.17824C16.0184 7.37406 16.0202 7.59719 16.1092 7.79169C16.3523 8.32279 16.2539 8.96999 15.8184 9.40549C15.2575 9.96639 14.3482 9.96639 13.7873 9.40549L9.60766 5.22588C9.04676 4.66501 9.04676 3.75565 9.60766 3.19477C10.0432 2.75926 10.6904 2.66089 11.2215 2.904C11.4159 2.993 11.6391 2.99477 11.8349 2.90887C12.0307 2.82298 12.1806 2.65758 12.2468 2.45426C12.2896 2.32287 12.3631 2.19891 12.4693 2.09275ZM3.21605 9.58629C3.77693 9.02539 4.68629 9.02539 5.24716 9.58629L9.42676 13.7659C9.98766 14.3268 9.98766 15.2361 9.42676 15.797C8.99126 16.2325 8.34406 16.3309 7.81296 16.0878C7.61856 15.9988 7.39537 15.997 7.19955 16.0829C7.00373 16.1688 6.85389 16.3342 6.78768 16.5375C6.7449 16.6689 6.67139 16.7929 6.56523 16.899C6.2087 17.2556 5.63066 17.2556 5.27413 16.899L2.11408 13.739C1.75755 13.3824 1.75755 12.8044 2.11407 12.4479C2.22023 12.3417 2.34418 12.2682 2.47557 12.2254C2.67889 12.1592 2.84428 12.0094 2.93018 11.8135C3.01607 11.6177 3.01429 11.3945 2.92529 11.2001C2.68217 10.669 2.78053 10.0218 3.21605 9.58629Z" fill="var(--fill-0, #CA4080)"/>
</g>
</svg>
