<svg preserveAspectRatio="none" width="100%" height="100%" overflow="visible" style="display: block;" viewBox="0 0 21.5 21.5" fill="none" xmlns="http://www.w3.org/2000/svg">
<path id="Vector" fill-rule="evenodd" clip-rule="evenodd" d="M10.316 0H11.184C12.835 0 14.121 -7.45081e-09 15.152 0.084C16.199 0.17 17.049 0.346 17.814 0.736C19.0842 1.38316 20.1168 2.41583 20.764 3.686C21.154 4.451 21.33 5.301 21.416 6.348C21.5 7.379 21.5 8.665 21.5 10.316V11.184C21.5 12.835 21.5 14.121 21.416 15.152C21.33 16.199 21.154 17.049 20.764 17.814C20.1168 19.0842 19.0842 20.1168 17.814 20.764C17.049 21.154 16.199 21.33 15.152 21.416C14.121 21.5 12.835 21.5 11.184 21.5H10.316C8.665 21.5 7.379 21.5 6.348 21.416C5.301 21.33 4.451 21.154 3.686 20.764C2.41583 20.1168 1.38316 19.0842 0.736 17.814C0.346 17.049 0.17 16.199 0.084 15.152C-7.45058e-09 14.121 0 12.835 0 11.184V10.316C0 8.665 -7.45058e-09 7.379 0.084 6.348C0.17 5.301 0.346 4.451 0.736 3.686C1.38316 2.41583 2.41583 1.38316 3.686 0.736C4.451 0.346 5.301 0.17 6.348 0.084C7.379 -7.45081e-09 8.665 0 10.316 0ZM6.47 1.58C5.516 1.657 4.885 1.808 4.367 2.072C3.3788 2.5754 2.5754 3.3788 2.072 4.367C1.808 4.885 1.657 5.517 1.579 6.47C1.501 7.433 1.5 8.657 1.5 10.35V11.15C1.5 12.842 1.5 14.067 1.58 15.03C1.602 15.303 1.63 15.55 1.665 15.774L5.011 12.429C5.384 12.056 5.695 11.745 5.971 11.511C6.258 11.267 6.554 11.064 6.909 10.947C7.45527 10.767 8.04422 10.7628 8.593 10.935C8.951 11.047 9.25 11.245 9.541 11.485C9.819 11.715 10.135 12.021 10.513 12.388L10.535 12.409L13.228 15.024L13.79 14.462C14.168 14.085 14.484 13.769 14.762 13.532C15.053 13.286 15.352 13.081 15.712 12.964C16.2644 12.7845 16.8596 12.7845 17.412 12.964C17.772 13.081 18.072 13.286 18.362 13.532C18.642 13.769 18.956 14.084 19.334 14.462L19.356 14.483L19.919 15.047L19.921 15.031C19.999 14.068 20 12.843 20 11.151V10.351C20 8.658 20 7.434 19.92 6.471C19.843 5.517 19.692 4.886 19.428 4.368C18.9246 3.3798 18.1212 2.5764 17.133 2.073C16.615 1.809 15.983 1.658 15.03 1.58C14.067 1.502 12.842 1.501 11.15 1.501H10.35C8.657 1.501 7.433 1.501 6.47 1.581V1.58ZM4.367 19.427C3.45566 18.9629 2.69971 18.2428 2.192 17.355C2.22325 17.332 2.25267 17.3066 2.28 17.279L6.05 13.509C6.45 13.109 6.719 12.842 6.942 12.652C7.158 12.468 7.283 12.402 7.379 12.37C7.62741 12.2879 7.89533 12.2858 8.145 12.364C8.241 12.394 8.367 12.459 8.586 12.64C8.812 12.827 9.084 13.09 9.49 13.484L12.71 16.61L15.911 19.811C15.6192 19.8609 15.3252 19.8973 15.03 19.92C14.067 19.998 12.842 19.999 11.15 19.999H10.35C8.657 19.999 7.433 19.999 6.47 19.919C5.516 19.842 4.885 19.691 4.367 19.427ZM19.427 17.132C18.9823 18.0047 18.3023 18.7355 17.464 19.242L14.297 16.075L14.83 15.543C15.235 15.138 15.507 14.866 15.733 14.674C15.953 14.487 16.08 14.42 16.176 14.389C16.4272 14.3073 16.6978 14.3073 16.949 14.389C17.045 14.42 17.172 14.487 17.392 14.674C17.618 14.866 17.89 15.137 18.295 15.542L19.569 16.816C19.5273 16.9236 19.4793 17.0291 19.427 17.132ZM13.5 6.75C13.5 6.41848 13.6317 6.10054 13.8661 5.86612C14.1005 5.6317 14.4185 5.5 14.75 5.5C15.0815 5.5 15.3995 5.6317 15.6339 5.86612C15.8683 6.10054 16 6.41848 16 6.75C16 7.08152 15.8683 7.39946 15.6339 7.63388C15.3995 7.8683 15.0815 8 14.75 8C14.4185 8 14.1005 7.8683 13.8661 7.63388C13.6317 7.39946 13.5 7.08152 13.5 6.75ZM14.75 4C14.0207 4 13.3212 4.28973 12.8055 4.80546C12.2897 5.32118 12 6.02065 12 6.75C12 7.47935 12.2897 8.17882 12.8055 8.69454C13.3212 9.21027 14.0207 9.5 14.75 9.5C15.4793 9.5 16.1788 9.21027 16.6945 8.69454C17.2103 8.17882 17.5 7.47935 17.5 6.75C17.5 6.02065 17.2103 5.32118 16.6945 4.80546C16.1788 4.28973 15.4793 4 14.75 4Z" fill="var(--fill-0, #779DFF)"/>
</svg>
