<svg width="26" height="20" viewBox="6 5 20 21" fill="none" xmlns="http://www.w3.org/2000/svg">
<path d="M19.51 6.41504H12.49C10 6.41504 9.45 7.65504 9.13 9.17504L8 14.5851H24L22.87 9.17504C22.55 7.65504 22 6.41504 19.51 6.41504Z" stroke="var(--stroke-0, #5B0A28)" stroke-width="1.5" stroke-linecap="round" stroke-linejoin="round"/>
<path d="M25.99 23.4051C26.1 24.5751 25.16 25.5851 23.96 25.5851H22.08C21 25.5851 20.85 25.1251 20.66 24.5551L20.46 23.9551C20.18 23.1351 20 22.5851 18.56 22.5851H13.44C12 22.5851 11.79 23.2051 11.54 23.9551L11.34 24.5551C11.15 25.1251 11 25.5851 9.91998 25.5851H8.03998C6.83998 25.5851 5.89998 24.5751 6.00998 23.4051L6.56998 17.3151C6.70998 15.8151 6.99998 14.5851 9.61998 14.5851H22.38C25 14.5851 25.29 15.8151 25.43 17.3151L25.99 23.4051Z" stroke="var(--stroke-0, #5B0A28)" stroke-width="1.5" stroke-linecap="round" stroke-linejoin="round"/>
<path d="M8 11.5851H7" stroke="var(--stroke-0, #5B0A28)" stroke-width="1.5" stroke-linecap="round" stroke-linejoin="round"/>
<path d="M25 11.5851H24" stroke="var(--stroke-0, #5B0A28)" stroke-width="1.5" stroke-linecap="round" stroke-linejoin="round"/>
<path d="M16 6.58508V8.58508" stroke="var(--stroke-0, #5B0A28)" stroke-width="1.5" stroke-linecap="round" stroke-linejoin="round"/>
<path d="M14.5 8.58508H17.5" stroke="var(--stroke-0, #5B0A28)" stroke-width="1.5" stroke-linecap="round" stroke-linejoin="round"/>
<path d="M10 18.5851H13" stroke="var(--stroke-0, #5B0A28)" stroke-width="1.5" stroke-linecap="round" stroke-linejoin="round"/>
<path d="M19 18.5851H22" stroke="var(--stroke-0, #5B0A28)" stroke-width="1.5" stroke-linecap="round" stroke-linejoin="round"/>
</svg>
